<mxfile host="app.diagrams.net" modified="2021-05-27T13:55:27.985Z" agent="5.0 (Windows NT 10.0; Win64; x64) AppleWebKit/537.36 (KHTML, like Gecko) Chrome/90.0.4430.212 Safari/537.36 Edg/90.0.818.66" etag="emT-nJQtN1_n3jv6wZTr" version="14.7.1" type="github">
  <diagram id="guN0_ISp70PArXxdg8vb" name="Page-1">
    <mxGraphModel dx="354" dy="651" grid="1" gridSize="10" guides="1" tooltips="1" connect="1" arrows="1" fold="1" page="1" pageScale="1" pageWidth="827" pageHeight="1169" math="0" shadow="0">
      <root>
        <mxCell id="0" />
        <mxCell id="1" parent="0" />
        <mxCell id="qPGTRNqkrpz23dsvWuwc-1" value="" style="ellipse;html=1;shape=endState;fillColor=#000000;strokeColor=#ff0000;" vertex="1" parent="1">
          <mxGeometry x="250" y="40" width="60" height="60" as="geometry" />
        </mxCell>
        <mxCell id="qPGTRNqkrpz23dsvWuwc-2" value="" style="endArrow=classic;html=1;entryX=0.5;entryY=0;entryDx=0;entryDy=0;" edge="1" parent="1" target="qPGTRNqkrpz23dsvWuwc-3">
          <mxGeometry width="50" height="50" relative="1" as="geometry">
            <mxPoint x="279.5" y="100" as="sourcePoint" />
            <mxPoint x="279.5" y="150" as="targetPoint" />
          </mxGeometry>
        </mxCell>
        <mxCell id="qPGTRNqkrpz23dsvWuwc-6" value="" style="edgeStyle=orthogonalEdgeStyle;rounded=0;orthogonalLoop=1;jettySize=auto;html=1;" edge="1" parent="1" source="qPGTRNqkrpz23dsvWuwc-3" target="qPGTRNqkrpz23dsvWuwc-4">
          <mxGeometry relative="1" as="geometry" />
        </mxCell>
        <mxCell id="qPGTRNqkrpz23dsvWuwc-3" value="Ввод A" style="rounded=1;whiteSpace=wrap;html=1;arcSize=50;fontSize=20;" vertex="1" parent="1">
          <mxGeometry x="220" y="160" width="120" height="40" as="geometry" />
        </mxCell>
        <mxCell id="qPGTRNqkrpz23dsvWuwc-7" value="" style="edgeStyle=orthogonalEdgeStyle;rounded=0;orthogonalLoop=1;jettySize=auto;html=1;" edge="1" parent="1" source="qPGTRNqkrpz23dsvWuwc-4" target="qPGTRNqkrpz23dsvWuwc-5">
          <mxGeometry relative="1" as="geometry" />
        </mxCell>
        <mxCell id="qPGTRNqkrpz23dsvWuwc-4" value="S = 0" style="rounded=1;whiteSpace=wrap;html=1;arcSize=50;fontSize=20;" vertex="1" parent="1">
          <mxGeometry x="220" y="240" width="120" height="40" as="geometry" />
        </mxCell>
        <mxCell id="qPGTRNqkrpz23dsvWuwc-9" value="" style="edgeStyle=orthogonalEdgeStyle;rounded=0;orthogonalLoop=1;jettySize=auto;html=1;" edge="1" parent="1" source="qPGTRNqkrpz23dsvWuwc-5" target="qPGTRNqkrpz23dsvWuwc-8">
          <mxGeometry relative="1" as="geometry" />
        </mxCell>
        <mxCell id="qPGTRNqkrpz23dsvWuwc-5" value="d = max(A)" style="rounded=1;whiteSpace=wrap;html=1;arcSize=50;fontSize=20;" vertex="1" parent="1">
          <mxGeometry x="220" y="320" width="120" height="40" as="geometry" />
        </mxCell>
        <mxCell id="qPGTRNqkrpz23dsvWuwc-8" value="Вывод d" style="rounded=1;whiteSpace=wrap;html=1;arcSize=50;fontSize=20;" vertex="1" parent="1">
          <mxGeometry x="200" y="400" width="160" height="40" as="geometry" />
        </mxCell>
        <mxCell id="qPGTRNqkrpz23dsvWuwc-10" value="Вывод A.index(max(A))" style="rounded=1;whiteSpace=wrap;html=1;arcSize=50;fontSize=20;" vertex="1" parent="1">
          <mxGeometry x="160" y="480" width="240" height="40" as="geometry" />
        </mxCell>
        <mxCell id="qPGTRNqkrpz23dsvWuwc-12" value="" style="endArrow=classic;html=1;entryX=0.5;entryY=0;entryDx=0;entryDy=0;" edge="1" parent="1" target="qPGTRNqkrpz23dsvWuwc-10">
          <mxGeometry width="50" height="50" relative="1" as="geometry">
            <mxPoint x="280" y="440" as="sourcePoint" />
            <mxPoint x="330" y="390" as="targetPoint" />
          </mxGeometry>
        </mxCell>
        <mxCell id="qPGTRNqkrpz23dsvWuwc-13" value="" style="endArrow=classic;html=1;" edge="1" parent="1">
          <mxGeometry width="50" height="50" relative="1" as="geometry">
            <mxPoint x="280" y="520" as="sourcePoint" />
            <mxPoint x="280" y="560" as="targetPoint" />
          </mxGeometry>
        </mxCell>
        <mxCell id="qPGTRNqkrpz23dsvWuwc-14" value="" style="rhombus;whiteSpace=wrap;html=1;" vertex="1" parent="1">
          <mxGeometry x="240" y="560" width="80" height="80" as="geometry" />
        </mxCell>
        <mxCell id="qPGTRNqkrpz23dsvWuwc-16" value="" style="endArrow=classic;html=1;" edge="1" parent="1">
          <mxGeometry width="50" height="50" relative="1" as="geometry">
            <mxPoint x="280" y="640" as="sourcePoint" />
            <mxPoint x="280" y="680" as="targetPoint" />
          </mxGeometry>
        </mxCell>
        <mxCell id="qPGTRNqkrpz23dsvWuwc-23" value="" style="edgeStyle=orthogonalEdgeStyle;rounded=0;orthogonalLoop=1;jettySize=auto;html=1;fontSize=20;" edge="1" parent="1" source="qPGTRNqkrpz23dsvWuwc-17" target="qPGTRNqkrpz23dsvWuwc-21">
          <mxGeometry relative="1" as="geometry" />
        </mxCell>
        <mxCell id="qPGTRNqkrpz23dsvWuwc-17" value="" style="rhombus;whiteSpace=wrap;html=1;" vertex="1" parent="1">
          <mxGeometry x="240" y="680" width="80" height="80" as="geometry" />
        </mxCell>
        <mxCell id="qPGTRNqkrpz23dsvWuwc-18" value="for i in A" style="text;html=1;strokeColor=none;fillColor=none;align=center;verticalAlign=middle;whiteSpace=wrap;rounded=0;fontSize=20;" vertex="1" parent="1">
          <mxGeometry x="280" y="530" width="110" height="20" as="geometry" />
        </mxCell>
        <mxCell id="qPGTRNqkrpz23dsvWuwc-20" value="i &amp;gt; 0" style="text;html=1;strokeColor=none;fillColor=none;align=center;verticalAlign=middle;whiteSpace=wrap;rounded=0;fontSize=20;" vertex="1" parent="1">
          <mxGeometry x="300" y="650" width="50" height="20" as="geometry" />
        </mxCell>
        <mxCell id="qPGTRNqkrpz23dsvWuwc-25" value="" style="edgeStyle=orthogonalEdgeStyle;rounded=0;orthogonalLoop=1;jettySize=auto;html=1;fontSize=20;" edge="1" parent="1" source="qPGTRNqkrpz23dsvWuwc-21" target="qPGTRNqkrpz23dsvWuwc-24">
          <mxGeometry relative="1" as="geometry" />
        </mxCell>
        <mxCell id="qPGTRNqkrpz23dsvWuwc-21" value="Вывод sum(A[A.index(i):])" style="rounded=1;whiteSpace=wrap;html=1;arcSize=50;fontSize=20;" vertex="1" parent="1">
          <mxGeometry x="160" y="800" width="240" height="40" as="geometry" />
        </mxCell>
        <mxCell id="qPGTRNqkrpz23dsvWuwc-24" value="" style="ellipse;html=1;shape=endState;fillColor=#000000;strokeColor=#ff0000;" vertex="1" parent="1">
          <mxGeometry x="250" y="880" width="60" height="60" as="geometry" />
        </mxCell>
      </root>
    </mxGraphModel>
  </diagram>
</mxfile>
